<svg xmlns="http://www.w3.org/2000/svg" width="805" height="600"><rect width="805" height="600" x="0" y="0" fill="#FFFFFF" id="backgorund"/><g id="viz"><clipPath id="serieClipPath"><rect x="-50" y="-10" width="805" height="600"/></clipPath><g transform="translate(0,0)"><g transform="translate(50,10)" clip-path="url(#serieClipPath)"><g id="axis"><g transform="translate(0,570)" fill="none" font-size="10" font-family="sans-serif" text-anchor="middle"><path class="domain" stroke="currentColor" d="M0.5,6V0.5H740.5V6"/><g class="tick" opacity="1" transform="translate(0.5,0)"><line stroke="currentColor" y2="6"/><text fill="currentColor" y="9" dy="0.71em">Feb 27</text></g><g class="tick" opacity="1" transform="translate(106.21428571428571,0)"><line stroke="currentColor" y2="6"/><text fill="currentColor" y="9" dy="0.71em">Mar 06</text></g><g class="tick" opacity="1" transform="translate(211.92857142857142,0)"><line stroke="currentColor" y2="6"/><text fill="currentColor" y="9" dy="0.71em">Mar 13</text></g><g class="tick" opacity="1" transform="translate(317.6428571428571,0)"><line stroke="currentColor" y2="6"/><text fill="currentColor" y="9" dy="0.71em">Mar 20</text></g><g class="tick" opacity="1" transform="translate(423.35714285714283,0)"><line stroke="currentColor" y2="6"/><text fill="currentColor" y="9" dy="0.71em">Mar 27</text></g><g class="tick" opacity="1" transform="translate(529.0714285714286,0)"><line stroke="currentColor" y2="6"/><text fill="currentColor" y="9" dy="0.71em">Apr 03</text></g><g class="tick" opacity="1" transform="translate(634.7857142857142,0)"><line stroke="currentColor" y2="6"/><text fill="currentColor" y="9" dy="0.71em">Apr 10</text></g><g class="tick" opacity="1" transform="translate(740.5,0)"><line stroke="currentColor" y2="6"/><text fill="currentColor" y="9" dy="0.71em">Apr 17</text></g><text x="740" dy="-5" text-anchor="end" style="font-family: Arial, sans-serif; font-size: 12px; fill: rgb(123, 123, 123); font-weight: bold;">日期</text></g><g transform="translate(0,0)" fill="none" font-size="10" font-family="sans-serif" text-anchor="end"><path class="domain" stroke="currentColor" d="M0.5,570.5V0.5"/><g class="tick" opacity="1" transform="translate(0,570.5)"><line stroke="currentColor" x2="-6"/><text fill="currentColor" x="-9" dy="0.32em">555</text></g><g class="tick" opacity="1" transform="translate(0,513.5)"><line stroke="currentColor" x2="-6"/><text fill="currentColor" x="-9" dy="0.32em">560</text></g><g class="tick" opacity="1" transform="translate(0,456.5)"><line stroke="currentColor" x2="-6"/><text fill="currentColor" x="-9" dy="0.32em">565</text></g><g class="tick" opacity="1" transform="translate(0,399.5)"><line stroke="currentColor" x2="-6"/><text fill="currentColor" x="-9" dy="0.32em">570</text></g><g class="tick" opacity="1" transform="translate(0,342.5)"><line stroke="currentColor" x2="-6"/><text fill="currentColor" x="-9" dy="0.32em">575</text></g><g class="tick" opacity="1" transform="translate(0,285.5)"><line stroke="currentColor" x2="-6"/><text fill="currentColor" x="-9" dy="0.32em">580</text></g><g class="tick" opacity="1" transform="translate(0,228.5)"><line stroke="currentColor" x2="-6"/><text fill="currentColor" x="-9" dy="0.32em">585</text></g><g class="tick" opacity="1" transform="translate(0,171.50000000000003)"><line stroke="currentColor" x2="-6"/><text fill="currentColor" x="-9" dy="0.32em">590</text></g><g class="tick" opacity="1" transform="translate(0,114.49999999999997)"><line stroke="currentColor" x2="-6"/><text fill="currentColor" x="-9" dy="0.32em">595</text></g><g class="tick" opacity="1" transform="translate(0,57.499999999999986)"><line stroke="currentColor" x2="-6"/><text fill="currentColor" x="-9" dy="0.32em">600</text></g><g class="tick" opacity="1" transform="translate(0,0.5)"><line stroke="currentColor" x2="-6"/><text fill="currentColor" x="-9" dy="0.32em">605</text></g><text x="4" text-anchor="start" dominant-baseline="hanging" style="font-family: Arial, sans-serif; font-size: 12px; fill: rgb(123, 123, 123); font-weight: bold;">收盤</text></g></g><g id="viz"><g><path d="M45.30612244897959,45.59999999999998C52.857142857142854,45.59999999999998,52.857142857142854,34.20000000000003,60.408163265306115,34.20000000000003C67.95918367346938,34.20000000000003,67.95918367346938,113.99999999999997,75.51020408163265,113.99999999999997C98.16326530612244,113.99999999999997,98.16326530612244,330.6,120.81632653061223,330.6C128.3673469387755,330.6,128.3673469387755,478.79999999999995,135.9183673469388,478.79999999999995C143.46938775510205,478.79999999999995,143.46938775510205,421.8,151.0204081632653,421.8C158.57142857142856,421.8,158.57142857142856,205.2,166.12244897959184,205.2C173.67346938775512,205.2,173.67346938775512,342,181.22448979591837,342C203.87755102040816,342,203.87755102040816,376.19999999999993,226.53061224489795,376.19999999999993C234.0816326530612,376.19999999999993,234.0816326530612,535.8,241.63265306122446,535.8C249.18367346938774,535.8,249.18367346938774,535.8,256.734693877551,535.8C264.28571428571433,535.8,264.28571428571433,262.2,271.8367346938776,262.2C279.38775510204084,262.2,279.38775510204084,273.59999999999997,286.9387755102041,273.59999999999997C309.59183673469386,273.59999999999997,309.59183673469386,216.6,332.2448979591837,216.6C339.795918367347,216.6,339.795918367347,250.79999999999998,347.34693877551024,250.79999999999998C354.8979591836735,250.79999999999998,354.8979591836735,171.00000000000003,362.44897959183675,171.00000000000003C370,171.00000000000003,370,159.60000000000002,377.55102040816325,159.60000000000002C385.1020408163265,159.60000000000002,385.1020408163265,79.80000000000001,392.6530612244898,79.80000000000001C415.30612244897964,79.80000000000001,415.30612244897964,239.40000000000003,437.9591836734694,239.40000000000003C445.51020408163265,239.40000000000003,445.51020408163265,182.39999999999998,453.0612244897959,182.39999999999998C460.61224489795916,182.39999999999998,460.61224489795916,56.999999999999986,468.16326530612247,56.999999999999986C475.71428571428567,56.999999999999986,475.71428571428567,91.20000000000002,483.2653061224489,91.20000000000002C490.8163265306122,91.20000000000002,490.8163265306122,182.39999999999998,498.3673469387755,182.39999999999998C536.1224489795918,182.39999999999998,536.1224489795918,307.8,573.8775510204082,307.8C581.4285714285714,307.8,581.4285714285714,444.6,588.9795918367347,444.6C596.530612244898,444.6,596.530612244898,433.2,604.0816326530612,433.2C626.7346938775511,433.2,626.7346938775511,535.8,649.3877551020408,535.8C656.9387755102041,535.8,656.9387755102041,547.1999999999999,664.4897959183673,547.1999999999999C672.0408163265306,547.1999999999999,672.0408163265306,364.8,679.5918367346939,364.8C687.1428571428571,364.8,687.1428571428571,364.8,694.6938775510205,364.8" stroke="#1f77b4" fill="none"/><text font-family="sans-serif" font-size="10" class="labels" x="60.408163265306115" y="34.20000000000003" dx="0" dy="-4" text-anchor="middle"/></g></g></g><text y="4" x="4" style="font-family: Arial, sans-serif; font-size: 12px; fill: black; font-weight: bold; dominant-baseline: hanging;"/></g><g id="grid"><rect x="0" y="0" width="805" height="600" fill="none" stroke="#ccc"/></g></g></svg>